<svg version="1.1" viewBox="0.0 0.0 960.0 400.0" fill="none" stroke="none" stroke-linecap="square" stroke-miterlimit="10" xmlns:xlink="http://www.w3.org/1999/xlink" xmlns="http://www.w3.org/2000/svg"><clipPath id="p.0"><path d="m0 0l960.0 0l0 400.0l-960.0 0l0 -400.0z" clip-rule="nonzero"/></clipPath><g clip-path="url(#p.0)"><path fill="#ffffff" d="m0 0l960.0 0l0 400.0l-960.0 0z" fill-rule="evenodd"/><path fill="#635bff" d="m7.281409 282.48932l0 0c0 -4.800598 3.8916583 -8.692261 8.692261 -8.692261l924.12726 0c2.305359 0 4.5162354 0.9157715 6.1463623 2.5458984c1.630127 1.630127 2.5458984 3.841034 2.5458984 6.1463623l0 36.22177c0 4.800598 -3.8916626 8.692261 -8.692261 8.692261l-924.12726 0c-4.800603 0 -8.692261 -3.8916626 -8.692261 -8.692261z" fill-rule="evenodd"/><path fill="#ffffff" d="m385.51324 295.88458q1.140625 0 1.9375 0.75q0.796875 0.734375 0.796875 1.875q0 0.90625 -0.375 1.5q-0.375 0.578125 -1.140625 0.890625l0 0.015625q0.671875 0.1875 1.03125 0.8125q0.359375 0.625 0.390625 1.90625q0.015625 1.296875 0.375 1.765625l-2.109375 0q-0.171875 -0.46875 -0.234375 -1.5q-0.109375 -1.40625 -0.484375 -1.8125q-0.375 -0.40625 -1.140625 -0.40625l-2.140625 0l0 3.71875l-2.09375 0l0 -9.515625l5.1875 0zm-0.765625 4.296875q0.65625 0 1.015625 -0.3125q0.375 -0.3125 0.375 -1.046875q0 -0.671875 -0.359375 -0.984375q-0.34375 -0.328125 -1.03125 -0.328125l-2.328125 0l0 2.671875l2.328125 0zm6.9532776 -4.296875l0 1.5625l-1.890625 0l0 -1.5625l1.890625 0zm0 2.625l0 6.890625l-1.890625 0l0 -6.890625l1.890625 0zm4.311157 -0.1875q1.40625 0 2.171875 0.5625q0.765625 0.546875 0.875 1.640625l-1.8125 0q-0.03125 -0.5 -0.359375 -0.71875q-0.328125 -0.21875 -0.9375 -0.21875q-0.546875 0 -0.796875 0.171875q-0.25 0.15625 -0.25 0.46875q0 0.3125 0.328125 0.53125q0.328125 0.203125 1.328125 0.390625q1.59375 0.296875 2.125 0.78125q0.546875 0.484375 0.546875 1.265625q0 1.171875 -0.859375 1.78125q-0.84375 0.609375 -2.28125 0.609375q-1.4375 0 -2.3125 -0.609375q-0.875 -0.609375 -0.921875 -1.8125l1.796875 0q0 0.546875 0.40625 0.859375q0.421875 0.296875 1.046875 0.296875q0.546875 0 0.890625 -0.234375q0.34375 -0.25 0.34375 -0.640625q0 -0.359375 -0.453125 -0.578125q-0.4375 -0.234375 -1.640625 -0.484375q-1.1875 -0.234375 -1.71875 -0.671875q-0.515625 -0.4375 -0.515625 -1.1875q0 -1.09375 0.765625 -1.640625q0.78125 -0.5625 2.234375 -0.5625zm6.393036 -2.4375l0 5.109375l2.390625 -2.484375l2.234375 0l-2.59375 2.53125l2.890625 4.359375l-2.296875 0l-1.890625 -3.078125l-0.734375 0.703125l0 2.375l-1.890625 0l0 -9.515625l1.890625 0zm7.7782593 7.46875l0 2.078125q0 0.78125 -0.546875 1.390625q-0.53125 0.609375 -1.53125 0.796875l0 -0.96875q0.4375 -0.09375 0.6875 -0.4375q0.265625 -0.34375 0.265625 -0.71875l0 -0.09375l-0.96875 0l0 -2.046875l2.09375 0zm10.6091 -7.46875q1.140625 0 1.9375 0.75q0.796875 0.734375 0.796875 1.875q0 0.90625 -0.375 1.5q-0.375 0.578125 -1.140625 0.890625l0 0.015625q0.671875 0.1875 1.03125 0.8125q0.359375 0.625 0.390625 1.90625q0.015625 1.296875 0.375 1.765625l-2.109375 0q-0.171875 -0.46875 -0.234375 -1.5q-0.109375 -1.40625 -0.484375 -1.8125q-0.375 -0.40625 -1.140625 -0.40625l-2.140625 0l0 3.71875l-2.09375 0l0 -9.515625l5.1875 0zm-0.765625 4.296875q0.65625 0 1.015625 -0.3125q0.375 -0.3125 0.375 -1.046875q0 -0.671875 -0.359375 -0.984375q-0.34375 -0.328125 -1.03125 -0.328125l-2.328125 0l0 2.671875l2.328125 0zm8.187653 -1.859375q1.53125 0 2.4375 1.0625q0.921875 1.046875 0.921875 2.671875l-0.015625 0.359375l-4.96875 0q0.03125 0.890625 0.453125 1.328125q0.4375 0.421875 1.234375 0.421875q0.515625 0 0.9375 -0.265625q0.4375 -0.265625 0.5625 -0.640625l1.65625 0q-0.375 1.171875 -1.1875 1.75q-0.796875 0.578125 -2.03125 0.578125q-1.59375 0 -2.5625 -1.0q-0.953125 -1.015625 -0.953125 -2.625q0 -1.546875 0.984375 -2.59375q0.984375 -1.046875 2.53125 -1.046875zm-1.625 2.890625l3.078125 0q-0.140625 -0.765625 -0.5 -1.109375q-0.34375 -0.359375 -1.015625 -0.359375q-0.6875 0 -1.09375 0.390625q-0.40625 0.390625 -0.46875 1.078125zm8.840759 -2.890625q0.75 0 1.234375 0.28125q0.5 0.28125 0.8125 0.828125l0.03125 0l0 -0.921875l1.796875 0l0 6.5q0 1.390625 -0.890625 2.1875q-0.875 0.8125 -2.671875 0.8125q-1.21875 0 -2.09375 -0.59375q-0.875 -0.578125 -0.953125 -1.625l1.875 0q0.125 0.5 0.484375 0.71875q0.375 0.234375 0.921875 0.234375q0.734375 0 1.125 -0.4375q0.40625 -0.4375 0.40625 -1.21875l0 -0.953125l-0.03125 0q-0.28125 0.5 -0.828125 0.78125q-0.53125 0.28125 -1.234375 0.28125q-1.390625 0 -2.171875 -0.921875q-0.78125 -0.921875 -0.78125 -2.53125q0 -1.46875 0.8125 -2.4375q0.8125 -0.984375 2.15625 -0.984375zm-1.0625 3.390625q0 0.96875 0.390625 1.515625q0.40625 0.546875 1.140625 0.546875q0.734375 0 1.171875 -0.546875q0.4375 -0.546875 0.4375 -1.375q0 -1.0 -0.421875 -1.546875q-0.40625 -0.5625 -1.203125 -0.5625q-0.703125 0 -1.109375 0.546875q-0.40625 0.53125 -0.40625 1.421875zm8.344482 -3.203125l0 3.953125q0 0.78125 0.265625 1.203125q0.28125 0.421875 0.953125 0.421875q0.78125 0 1.125 -0.46875q0.34375 -0.46875 0.34375 -1.4375l0 -3.671875l1.890625 0l0 6.890625l-1.8125 0l0 -0.953125l-0.03125 0q-0.359375 0.5625 -0.921875 0.859375q-0.5625 0.28125 -1.1875 0.28125q-1.28125 0 -1.90625 -0.65625q-0.609375 -0.65625 -0.609375 -2.109375l0 -4.3125l1.890625 0zm7.9630737 -2.625l0 9.515625l-1.890625 0l0 -9.515625l1.890625 0zm4.654907 2.4375q1.53125 0 2.265625 0.5q0.75 0.5 0.75 1.421875l0 3.6875q0 0.421875 0.046875 0.84375q0.0625 0.40625 0.1875 0.625l-1.921875 0q-0.046875 -0.15625 -0.078125 -0.3125q-0.03125 -0.171875 -0.046875 -0.34375q-0.40625 0.40625 -1.0 0.625q-0.578125 0.21875 -1.328125 0.21875q-1.0625 0 -1.703125 -0.53125q-0.640625 -0.546875 -0.640625 -1.53125q0 -0.96875 0.59375 -1.46875q0.609375 -0.515625 2.1875 -0.703125q1.109375 -0.09375 1.453125 -0.265625q0.359375 -0.171875 0.359375 -0.578125q0 -0.453125 -0.28125 -0.6875q-0.265625 -0.234375 -0.9375 -0.234375q-0.59375 0 -0.90625 0.25q-0.3125 0.25 -0.359375 0.796875l-1.890625 0q0.078125 -1.140625 0.921875 -1.71875q0.859375 -0.59375 2.328125 -0.59375zm-1.578125 5.125q0 0.40625 0.28125 0.640625q0.28125 0.234375 0.890625 0.234375q0.75 0 1.140625 -0.390625q0.390625 -0.40625 0.390625 -1.171875l0 -0.734375q-0.171875 0.140625 -0.453125 0.21875q-0.28125 0.0625 -1.0 0.15625q-0.640625 0.09375 -0.953125 0.34375q-0.296875 0.25 -0.296875 0.703125zm8.465759 -7.0l0 2.0625l1.375 0l0 1.265625l-1.375 0l0 3.453125q0 0.421875 0.15625 0.59375q0.15625 0.171875 0.640625 0.171875q0.15625 0 0.296875 -0.015625q0.15625 -0.015625 0.28125 -0.046875l0 1.484375q-0.234375 0.03125 -0.53125 0.046875q-0.28125 0.015625 -0.5625 0.015625q-1.21875 0 -1.703125 -0.421875q-0.484375 -0.421875 -0.484375 -1.171875l0 -4.109375l-1.140625 0l0 -1.265625l1.140625 0l0 -2.0625l1.90625 0zm5.564575 1.875q1.625 0 2.59375 1.0q0.984375 1.0 0.984375 2.640625q0 1.640625 -0.984375 2.640625q-0.984375 0.984375 -2.59375 0.984375q-1.59375 0 -2.578125 -0.984375q-0.984375 -1.0 -0.984375 -2.640625q0 -1.625 0.96875 -2.625q0.96875 -1.015625 2.59375 -1.015625zm-1.65625 3.640625q0 1.09375 0.4375 1.65625q0.453125 0.546875 1.21875 0.546875q0.8125 0 1.25 -0.578125q0.4375 -0.578125 0.4375 -1.625q0 -1.03125 -0.421875 -1.625q-0.421875 -0.59375 -1.28125 -0.59375q-0.75 0 -1.203125 0.5625q-0.4375 0.546875 -0.4375 1.65625zm10.469482 -3.640625q0.125 0 0.21875 0.015625q0.109375 0.015625 0.203125 0.046875l0 1.765625q-0.15625 -0.03125 -0.3125 -0.046875q-0.15625 -0.015625 -0.359375 -0.015625q-0.953125 0 -1.421875 0.59375q-0.453125 0.578125 -0.453125 1.5625l0 3.15625l-1.890625 0l0 -6.890625l1.796875 0l0 1.28125l0.03125 0q0.296875 -0.671875 0.890625 -1.0625q0.59375 -0.40625 1.296875 -0.40625zm2.6073608 0.1875l1.546875 4.71875l0.03125 0l1.5 -4.71875l1.96875 0l-2.9375 7.890625q-0.25 0.6875 -0.796875 1.046875q-0.53125 0.375 -1.390625 0.375q-0.421875 0 -0.703125 -0.015625q-0.28125 -0.015625 -0.578125 -0.046875l0 -1.5625q0.34375 0.046875 0.5625 0.046875q0.21875 0.015625 0.421875 0.015625q0.40625 0 0.625 -0.25q0.21875 -0.234375 0.21875 -0.609375q0 -0.09375 -0.015625 -0.1875q0 -0.09375 -0.0625 -0.234375l-2.421875 -6.46875l2.03125 0zm12.80835 -2.734375q1.140625 0 1.859375 0.625q0.734375 0.609375 0.734375 1.65625q0 0.734375 -0.421875 1.328125q-0.421875 0.59375 -1.265625 1.046875l1.234375 1.5q0.109375 -0.21875 0.203125 -0.5q0.09375 -0.296875 0.140625 -0.625l1.640625 0q-0.09375 0.734375 -0.328125 1.3125q-0.234375 0.578125 -0.59375 1.03125l1.9375 2.25l-2.328125 0l-0.765625 -0.9375q-0.578125 0.5625 -1.234375 0.84375q-0.65625 0.28125 -1.453125 0.28125q-1.328125 0 -2.203125 -0.765625q-0.875 -0.78125 -0.875 -2.078125q0 -0.84375 0.53125 -1.546875q0.546875 -0.71875 1.609375 -1.21875q-0.546875 -0.65625 -0.734375 -1.109375q-0.171875 -0.453125 -0.171875 -0.921875q0 -0.921875 0.734375 -1.546875q0.734375 -0.625 1.75 -0.625zm-0.765625 2.109375q0 0.296875 0.125 0.59375q0.140625 0.28125 0.625 0.828125q0.53125 -0.328125 0.75 -0.625q0.21875 -0.296875 0.21875 -0.71875q0 -0.390625 -0.265625 -0.65625q-0.25 -0.265625 -0.609375 -0.265625q-0.359375 0 -0.609375 0.25q-0.234375 0.25 -0.234375 0.59375zm-1.15625 4.890625q0 0.5 0.40625 0.875q0.421875 0.375 0.953125 0.375q0.421875 0 0.796875 -0.171875q0.375 -0.1875 0.8125 -0.671875l-1.625 -1.984375q-0.640625 0.28125 -1.0 0.6875q-0.34375 0.390625 -0.34375 0.890625zm15.802307 -7.125q1.625 0 2.765625 0.921875q1.140625 0.921875 1.328125 2.515625l-2.015625 0q-0.140625 -0.75 -0.75 -1.203125q-0.59375 -0.46875 -1.328125 -0.46875q-1.234375 0 -1.921875 0.890625q-0.671875 0.890625 -0.671875 2.375q0 1.40625 0.671875 2.296875q0.671875 0.890625 1.921875 0.890625q0.90625 0 1.453125 -0.5625q0.5625 -0.5625 0.703125 -1.5625l2.03125 0q-0.1875 1.8125 -1.328125 2.859375q-1.125 1.03125 -2.859375 1.03125q-1.375 0 -2.453125 -0.625q-1.0625 -0.640625 -1.65625 -1.78125q-0.578125 -1.140625 -0.578125 -2.546875q0 -2.1875 1.28125 -3.609375q1.296875 -1.421875 3.40625 -1.421875zm8.753967 2.671875q1.625 0 2.59375 1.0q0.984375 1.0 0.984375 2.640625q0 1.640625 -0.984375 2.640625q-0.984375 0.984375 -2.59375 0.984375q-1.59375 0 -2.578125 -0.984375q-0.9844055 -1.0 -0.9844055 -2.640625q0 -1.625 0.9687805 -2.625q0.96875 -1.015625 2.59375 -1.015625zm-1.65625 3.640625q0 1.09375 0.4375 1.65625q0.453125 0.546875 1.21875 0.546875q0.8125 0 1.25 -0.578125q0.4375 -0.578125 0.4375 -1.625q0 -1.03125 -0.421875 -1.625q-0.421875 -0.59375 -1.28125 -0.59375q-0.75 0 -1.203125 0.5625q-0.4375 0.546875 -0.4375 1.65625zm10.422607 -3.640625q0.765625 0 1.265625 0.296875q0.515625 0.296875 0.75 0.859375q0.390625 -0.5625 0.921875 -0.859375q0.53125 -0.296875 1.171875 -0.296875q1.25 0 1.875 0.640625q0.625 0.640625 0.625 1.765625l0 4.671875l-1.890625 0l0 -3.984375q0 -0.9375 -0.28125 -1.265625q-0.265625 -0.328125 -0.875 -0.328125q-0.640625 0 -0.953125 0.4375q-0.3125 0.421875 -0.3125 1.25l0 3.890625l-1.890625 0l0 -4.25q0 -0.671875 -0.265625 -1.0q-0.265625 -0.328125 -0.875 -0.328125q-0.546875 0 -0.921875 0.421875q-0.359375 0.40625 -0.359375 1.109375l0 4.046875l-1.890625 0l0 -6.890625l1.78125 0l0 0.9375l0.015625 0q0.40625 -0.5625 0.9375 -0.84375q0.53125 -0.28125 1.171875 -0.28125zm11.9783325 0q1.46875 0 2.296875 1.03125q0.84375 1.015625 0.84375 2.671875q0 1.53125 -0.828125 2.546875q-0.8125 1.015625 -2.203125 1.015625q-0.625 0 -1.171875 -0.265625q-0.546875 -0.265625 -0.890625 -0.78125l-0.03125 0l0 3.28125l-1.890625 0l0 -9.3125l1.796875 0l0 0.875l0.03125 0q0.34375 -0.53125 0.859375 -0.796875q0.53125 -0.265625 1.1875 -0.265625zm-2.046875 3.65625q0 0.984375 0.421875 1.59375q0.421875 0.59375 1.234375 0.59375q0.78125 0 1.203125 -0.5625q0.4375 -0.578125 0.4375 -1.625q0 -0.984375 -0.4375 -1.609375q-0.421875 -0.625 -1.234375 -0.625q-0.78125 0 -1.203125 0.59375q-0.421875 0.578125 -0.421875 1.640625zm8.266357 -6.09375l0 9.515625l-1.890625 0l0 -9.515625l1.890625 0zm3.4361572 0l0 1.5625l-1.890625 0l0 -1.5625l1.890625 0zm0 2.625l0 6.890625l-1.890625 0l0 -6.890625l1.890625 0zm4.654907 -0.1875q1.53125 0 2.265625 0.5q0.75 0.5 0.75 1.421875l0 3.6875q0 0.421875 0.046875 0.84375q0.0625 0.40625 0.1875 0.625l-1.921875 0q-0.046875 -0.15625 -0.078125 -0.3125q-0.03125 -0.171875 -0.046875 -0.34375q-0.40625 0.40625 -1.0 0.625q-0.578125 0.21875 -1.328125 0.21875q-1.0625 0 -1.703125 -0.53125q-0.640625 -0.546875 -0.640625 -1.53125q0 -0.96875 0.59375 -1.46875q0.609375 -0.515625 2.1875 -0.703125q1.109375 -0.09375 1.453125 -0.265625q0.359375 -0.171875 0.359375 -0.578125q0 -0.453125 -0.28125 -0.6875q-0.265625 -0.234375 -0.9375 -0.234375q-0.59375 0 -0.90625 0.25q-0.3125 0.25 -0.359375 0.796875l-1.890625 0q0.078125 -1.140625 0.921875 -1.71875q0.859375 -0.59375 2.328125 -0.59375zm-1.578125 5.125q0 0.40625 0.28125 0.640625q0.28125 0.234375 0.890625 0.234375q0.75 0 1.140625 -0.390625q0.390625 -0.40625 0.390625 -1.171875l0 -0.734375q-0.171875 0.140625 -0.453125 0.21875q-0.28125 0.0625 -1.0 0.15625q-0.640625 0.09375 -0.953125 0.34375q-0.296875 0.25 -0.296875 0.703125zm10.012634 -5.125q1.328125 0 1.921875 0.671875q0.59375 0.671875 0.59375 2.09375l0 4.3125l-1.890625 0l0 -3.953125q0 -0.796875 -0.28125 -1.203125q-0.28125 -0.421875 -0.9375 -0.421875q-0.78125 0 -1.125 0.46875q-0.34375 0.46875 -0.34375 1.4375l0 3.671875l-1.890625 0l0 -6.890625l1.796875 0l0 0.96875l0.046875 0q0.34375 -0.5625 0.890625 -0.859375q0.5625 -0.296875 1.21875 -0.296875zm7.2443237 0q1.34375 0 2.25 0.703125q0.921875 0.6875 1.0 1.90625l-1.859375 0q-0.078125 -0.59375 -0.4375 -0.890625q-0.34375 -0.296875 -0.953125 -0.296875q-0.765625 0 -1.1875 0.625q-0.421875 0.625 -0.421875 1.625q0 0.984375 0.40625 1.578125q0.421875 0.59375 1.15625 0.59375q0.625 0 1.015625 -0.359375q0.390625 -0.359375 0.5 -1.046875l1.8125 0q-0.1875 1.359375 -1.0625 2.09375q-0.875 0.734375 -2.25 0.734375q-1.53125 0 -2.515625 -0.984375q-0.96875 -0.984375 -0.96875 -2.546875q0 -1.671875 0.953125 -2.703125q0.96875 -1.03125 2.5625 -1.03125zm7.5438843 0q1.53125 0 2.4375 1.0625q0.921875 1.046875 0.921875 2.671875l-0.015625 0.359375l-4.96875 0q0.03125 0.890625 0.453125 1.328125q0.4375 0.421875 1.234375 0.421875q0.515625 0 0.9375 -0.265625q0.4375 -0.265625 0.5625 -0.640625l1.65625 0q-0.375 1.171875 -1.1875 1.75q-0.796875 0.578125 -2.03125 0.578125q-1.59375 0 -2.5625 -1.0q-0.953125 -1.015625 -0.953125 -2.625q0 -1.546875 0.984375 -2.59375q0.984375 -1.046875 2.53125 -1.046875zm-1.625 2.890625l3.078125 0q-0.140625 -0.765625 -0.5 -1.109375q-0.34375 -0.359375 -1.015625 -0.359375q-0.6875 0 -1.09375 0.390625q-0.40625 0.390625 -0.46875 1.078125z" fill-rule="nonzero"/><path fill="#827cff" d="m7.281409 219.09853l0 0c0 -4.800598 3.8916583 -8.692261 8.692261 -8.692261l924.12726 0c2.305359 0 4.5162354 0.91578674 6.1463623 2.5459137c1.630127 1.6301117 2.5458984 3.8410187 2.5458984 6.146347l0 36.221786c0 4.800598 -3.8916626 8.692261 -8.692261 8.692261l-924.12726 0c-4.800603 0 -8.692261 -3.8916626 -8.692261 -8.692261z" fill-rule="evenodd"/><path fill="#ffffff" d="m449.67935 232.49379l0 1.765625l-2.859375 0l0 7.75l-2.078125 0l0 -7.75l-2.859375 0l0 -1.765625l7.796875 0zm2.7051697 2.4375q1.53125 0 2.4375 1.0625q0.921875 1.046875 0.921875 2.671875l-0.015625 0.359375l-4.96875 0q0.03125 0.890625 0.453125 1.328125q0.4375 0.421875 1.234375 0.421875q0.515625 0 0.9375 -0.265625q0.4375 -0.265625 0.5625 -0.640625l1.65625 0q-0.375 1.171875 -1.1875 1.75q-0.796875 0.578125 -2.03125 0.578125q-1.59375 0 -2.5625 -1.0q-0.953125 -1.015625 -0.953125 -2.625q0 -1.546875 0.984375 -2.59375q0.984375 -1.046875 2.53125 -1.046875zm-1.625 2.890625l3.078125 0q-0.140625 -0.765625 -0.5 -1.109375q-0.34375 -0.359375 -1.015625 -0.359375q-0.6875 0 -1.09375 0.390625q-0.40625 0.390625 -0.46875 1.078125zm9.387634 -2.890625q1.34375 0 2.25 0.703125q0.921875 0.6875 1.0 1.90625l-1.859375 0q-0.078125 -0.59375 -0.4375 -0.890625q-0.34375 -0.296875 -0.953125 -0.296875q-0.765625 0 -1.1875 0.625q-0.421875 0.625 -0.421875 1.625q0 0.984375 0.40625 1.578125q0.421875 0.59375 1.15625 0.59375q0.625 0 1.015625 -0.359375q0.390625 -0.359375 0.5 -1.046875l1.8125 0q-0.1875 1.359375 -1.0625 2.09375q-0.875 0.734375 -2.25 0.734375q-1.53125 0 -2.515625 -0.984375q-0.96875 -0.984375 -0.96875 -2.546875q0 -1.671875 0.953125 -2.703125q0.96875 -1.03125 2.5625 -1.03125zm6.2470093 -2.4375l0 3.59375l0.046875 0q0.296875 -0.515625 0.84375 -0.828125q0.546875 -0.328125 1.171875 -0.328125q1.328125 0 1.921875 0.671875q0.59375 0.671875 0.59375 2.09375l0 4.3125l-1.890625 0l0 -3.953125q0 -0.796875 -0.28125 -1.203125q-0.28125 -0.421875 -0.9375 -0.421875q-0.78125 0 -1.125 0.46875q-0.34375 0.46875 -0.34375 1.4375l0 3.671875l-1.890625 0l0 -9.515625l1.890625 0zm9.963043 2.4375q1.328125 0 1.921875 0.671875q0.59375 0.671875 0.59375 2.09375l0 4.3125l-1.890625 0l0 -3.953125q0 -0.796875 -0.28125 -1.203125q-0.28125 -0.421875 -0.9375 -0.421875q-0.78125 0 -1.125 0.46875q-0.34375 0.46875 -0.34375 1.4375l0 3.671875l-1.890625 0l0 -6.890625l1.796875 0l0 0.96875l0.046875 0q0.34375 -0.5625 0.890625 -0.859375q0.5625 -0.296875 1.21875 -0.296875zm7.291168 0q1.625 0 2.59375 1.0q0.984375 1.0 0.984375 2.640625q0 1.640625 -0.984375 2.640625q-0.984375 0.984375 -2.59375 0.984375q-1.59375 0 -2.578125 -0.984375q-0.984375 -1.0 -0.984375 -2.640625q0 -1.625 0.96875 -2.625q0.96875 -1.015625 2.59375 -1.015625zm-1.65625 3.640625q0 1.09375 0.4375 1.65625q0.453125 0.546875 1.21875 0.546875q0.8125 0 1.25 -0.578125q0.4375 -0.578125 0.4375 -1.625q0 -1.03125 -0.421875 -1.625q-0.421875 -0.59375 -1.28125 -0.59375q-0.75 0 -1.203125 0.5625q-0.4375 0.546875 -0.4375 1.65625zm8.406982 -6.078125l0 9.515625l-1.890625 0l0 -9.515625l1.890625 0zm4.826782 2.4375q1.625 0 2.59375 1.0q0.984375 1.0 0.984375 2.640625q0 1.640625 -0.984375 2.640625q-0.984375 0.984375 -2.59375 0.984375q-1.59375 0 -2.578125 -0.984375q-0.984375 -1.0 -0.984375 -2.640625q0 -1.625 0.96875 -2.625q0.96875 -1.015625 2.59375 -1.015625zm-1.65625 3.640625q0 1.09375 0.4375 1.65625q0.453125 0.546875 1.21875 0.546875q0.8125 0 1.25 -0.578125q0.4375 -0.578125 0.4375 -1.625q0 -1.03125 -0.421875 -1.625q-0.421875 -0.59375 -1.28125 -0.59375q-0.75 0 -1.203125 0.5625q-0.4375 0.546875 -0.4375 1.65625zm9.203857 -3.640625q0.75 0 1.234375 0.28125q0.5 0.28125 0.8125 0.828125l0.03125 0l0 -0.921875l1.796875 0l0 6.5q0 1.390625 -0.890625 2.1875q-0.875 0.8125 -2.671875 0.8125q-1.21875 0 -2.09375 -0.59375q-0.875 -0.578125 -0.953125 -1.625l1.875 0q0.125 0.5 0.484375 0.71875q0.375 0.234375 0.921875 0.234375q0.734375 0 1.125 -0.4375q0.40625 -0.4375 0.40625 -1.21875l0 -0.953125l-0.03125 0q-0.28125 0.5 -0.828125 0.78125q-0.53125 0.28125 -1.234375 0.28125q-1.390625 0 -2.171875 -0.921875q-0.78125 -0.921875 -0.78125 -2.53125q0 -1.46875 0.8125 -2.4375q0.8125 -0.984375 2.15625 -0.984375zm-1.0625 3.390625q0 0.96875 0.390625 1.515625q0.40625 0.546875 1.140625 0.546875q0.734375 0 1.171875 -0.546875q0.4375 -0.546875 0.4375 -1.375q0 -1.0 -0.421875 -1.546875q-0.40625 -0.5625 -1.203125 -0.5625q-0.703125 0 -1.109375 0.546875q-0.40625 0.53125 -0.40625 1.421875zm7.6882324 -3.203125l1.546875 4.71875l0.03125 0l1.5 -4.71875l1.96875 0l-2.9375 7.890625q-0.25 0.6875 -0.796875 1.046875q-0.53125 0.375 -1.390625 0.375q-0.421875 0 -0.703125 -0.015625q-0.28125 -0.015625 -0.578125 -0.046875l0 -1.5625q0.34375 0.046875 0.5625 0.046875q0.21875 0.015625 0.421875 0.015625q0.40625 0 0.625 -0.25q0.21875 -0.234375 0.21875 -0.609375q0 -0.09375 -0.015625 -0.1875q0 -0.09375 -0.0625 -0.234375l-2.421875 -6.46875l2.03125 0z" fill-rule="nonzero"/><path fill="#a19dff" d="m7.281409 155.87047l0 0c0 -4.8908997 3.9648585 -8.855774 8.855761 -8.855774l923.8003 0c2.3486938 0 4.6011963 0.9330292 6.261963 2.5937958c1.6608276 1.6607819 2.593811 3.9132843 2.593811 6.261978l0 35.894775c0 4.8908997 -3.9648438 8.855759 -8.855774 8.855759l-923.8003 0c-4.8909016 0 -8.855761 -3.964859 -8.855761 -8.855759z" fill-rule="evenodd"/><path fill="#0a2540" d="m414.8981 169.10223q1.484375 0 2.34375 0.84375q0.875 0.828125 0.875 2.203125q0 1.375 -0.875 2.21875q-0.859375 0.84375 -2.34375 0.84375l-2.265625 0l0 3.40625l-2.09375 0l0 -9.515625l4.359375 0zm-0.578125 4.484375q0.890625 0 1.328125 -0.34375q0.4375 -0.34375 0.4375 -1.09375q0 -0.71875 -0.421875 -1.0625q-0.421875 -0.359375 -1.34375 -0.359375l-1.6875 0l0 2.859375l1.6875 0zm7.6957397 -2.046875q1.53125 0 2.4375 1.0625q0.921875 1.046875 0.921875 2.671875l-0.015625 0.359375l-4.96875 0q0.03125 0.890625 0.453125 1.328125q0.4375 0.421875 1.234375 0.421875q0.515625 0 0.9375 -0.265625q0.4375 -0.265625 0.5625 -0.640625l1.65625 0q-0.375 1.171875 -1.1875 1.75q-0.796875 0.578125 -2.03125 0.578125q-1.59375 0 -2.5625 -1.0q-0.953125 -1.015625 -0.953125 -2.625q0 -1.546875 0.984375 -2.59375q0.984375 -1.046875 2.53125 -1.046875zm-1.625 2.890625l3.078125 0q-0.140625 -0.765625 -0.5 -1.109375q-0.34375 -0.359375 -1.015625 -0.359375q-0.6875 0 -1.09375 0.390625q-0.40625 0.390625 -0.46875 1.078125zm9.434509 -2.890625q1.625 0 2.59375 1.0q0.984375 1.0 0.984375 2.640625q0 1.640625 -0.984375 2.640625q-0.984375 0.984375 -2.59375 0.984375q-1.59375 0 -2.578125 -0.984375q-0.984375 -1.0 -0.984375 -2.640625q0 -1.625 0.96875 -2.625q0.96875 -1.015625 2.59375 -1.015625zm-1.65625 3.640625q0 1.09375 0.4375 1.65625q0.453125 0.546875 1.21875 0.546875q0.8125 0 1.25 -0.578125q0.4375 -0.578125 0.4375 -1.625q0 -1.03125 -0.421875 -1.625q-0.421875 -0.59375 -1.28125 -0.59375q-0.75 0 -1.203125 0.5625q-0.4375 0.546875 -0.4375 1.65625zm10.328857 -3.640625q1.46875 0 2.296875 1.03125q0.84375 1.015625 0.84375 2.671875q0 1.53125 -0.828125 2.546875q-0.8125 1.015625 -2.203125 1.015625q-0.625 0 -1.171875 -0.265625q-0.546875 -0.265625 -0.890625 -0.78125l-0.03125 0l0 3.28125l-1.890625 0l0 -9.3125l1.796875 0l0 0.875l0.03125 0q0.34375 -0.53125 0.859375 -0.796875q0.53125 -0.265625 1.1875 -0.265625zm-2.046875 3.65625q0 0.984375 0.421875 1.59375q0.421875 0.59375 1.234375 0.59375q0.78125 0 1.203125 -0.5625q0.4375 -0.578125 0.4375 -1.625q0 -0.984375 -0.4375 -1.609375q-0.421875 -0.625 -1.234375 -0.625q-0.78125 0 -1.203125 0.59375q-0.421875 0.578125 -0.421875 1.640625zm8.266357 -6.09375l0 9.515625l-1.890625 0l0 -9.515625l1.890625 0zm4.670532 2.4375q1.53125 0 2.4375 1.0625q0.921875 1.046875 0.921875 2.671875l-0.015625 0.359375l-4.96875 0q0.03125 0.890625 0.453125 1.328125q0.4375 0.421875 1.234375 0.421875q0.515625 0 0.9375 -0.265625q0.4375 -0.265625 0.5625 -0.640625l1.65625 0q-0.375 1.171875 -1.1875 1.75q-0.796875 0.578125 -2.03125 0.578125q-1.59375 0 -2.5625 -1.0q-0.953125 -1.015625 -0.953125 -2.625q0 -1.546875 0.984375 -2.59375q0.984375 -1.046875 2.53125 -1.046875zm-1.625 2.890625l3.078125 0q-0.140625 -0.765625 -0.5 -1.109375q-0.34375 -0.359375 -1.015625 -0.359375q-0.6875 0 -1.09375 0.390625q-0.40625 0.390625 -0.46875 1.078125zm13.215607 -5.4375q1.140625 0 1.859375 0.625q0.734375 0.609375 0.734375 1.65625q0 0.734375 -0.421875 1.328125q-0.421875 0.59375 -1.265625 1.046875l1.234375 1.5q0.109375 -0.21875 0.203125 -0.5q0.09375 -0.296875 0.140625 -0.625l1.640625 0q-0.09375 0.734375 -0.328125 1.3125q-0.234375 0.578125 -0.59375 1.03125l1.9375 2.25l-2.328125 0l-0.765625 -0.9375q-0.578125 0.5625 -1.234375 0.84375q-0.65625 0.28125 -1.453125 0.28125q-1.328125 0 -2.203125 -0.765625q-0.875 -0.78125 -0.875 -2.078125q0 -0.84375 0.53125 -1.546875q0.546875 -0.71875 1.609375 -1.21875q-0.546875 -0.65625 -0.734375 -1.109375q-0.171875 -0.453125 -0.171875 -0.921875q0 -0.921875 0.734375 -1.546875q0.734375 -0.625 1.75 -0.625zm-0.765625 2.109375q0 0.296875 0.125 0.59375q0.140625 0.28125 0.625 0.828125q0.53125 -0.328125 0.75 -0.625q0.21875 -0.296875 0.21875 -0.71875q0 -0.390625 -0.265625 -0.65625q-0.25 -0.265625 -0.609375 -0.265625q-0.359375 0 -0.609375 0.25q-0.234375 0.25 -0.234375 0.59375zm-1.15625 4.890625q0 0.5 0.40625 0.875q0.421875 0.375 0.953125 0.375q0.421875 0 0.796875 -0.171875q0.375 -0.1875 0.8125 -0.671875l-1.625 -1.984375q-0.640625 0.28125 -1.0 0.6875q-0.34375 0.390625 -0.34375 0.890625zm15.802307 -7.125q1.546875 0 2.6875 0.90625q1.140625 0.890625 1.328125 2.453125l-2.0 0q-0.203125 -0.796875 -0.734375 -1.1875q-0.53125 -0.40625 -1.28125 -0.40625q-1.25 0 -1.921875 0.90625q-0.671875 0.890625 -0.671875 2.359375q0 1.390625 0.671875 2.296875q0.671875 0.890625 1.921875 0.890625q1.0 0 1.578125 -0.515625q0.59375 -0.515625 0.6875 -1.53125l-2.109375 0l0 -1.5625l4.0 0l0 5.140625l-1.328125 0l-0.21875 -1.078125q-0.515625 0.65625 -1.171875 0.984375q-0.640625 0.328125 -1.4375 0.328125q-1.375 0 -2.453125 -0.625q-1.0625 -0.640625 -1.65625 -1.78125q-0.578125 -1.140625 -0.578125 -2.546875q0 -2.203125 1.28125 -3.609375q1.296875 -1.421875 3.40625 -1.421875zm8.98822 2.671875q1.625 0 2.59375 1.0q0.984375 1.0 0.984375 2.640625q0 1.640625 -0.984375 2.640625q-0.984375 0.984375 -2.59375 0.984375q-1.59375 0 -2.578125 -0.984375q-0.984375 -1.0 -0.984375 -2.640625q0 -1.625 0.96875 -2.625q0.96875 -1.015625 2.59375 -1.015625zm-1.65625 3.640625q0 1.09375 0.4375 1.65625q0.453125 0.546875 1.21875 0.546875q0.8125 0 1.25 -0.578125q0.4375 -0.578125 0.4375 -1.625q0 -1.03125 -0.421875 -1.625q-0.421875 -0.59375 -1.28125 -0.59375q-0.75 0 -1.203125 0.5625q-0.4375 0.546875 -0.4375 1.65625zm7.7819824 -3.453125l1.453125 4.703125l0.03125 0l1.453125 -4.703125l1.875 0l-2.328125 6.890625l-2.109375 0l-2.359375 -6.890625l1.984375 0zm8.790283 -0.1875q1.53125 0 2.4375 1.0625q0.921875 1.046875 0.921875 2.671875l-0.015625 0.359375l-4.96875 0q0.03125 0.890625 0.453125 1.328125q0.4375 0.421875 1.234375 0.421875q0.515625 0 0.9375 -0.265625q0.4375 -0.265625 0.5625 -0.640625l1.65625 0q-0.375 1.171875 -1.1875 1.75q-0.796875 0.578125 -2.03125 0.578125q-1.59375 0 -2.5625 -1.0q-0.953125 -1.015625 -0.953125 -2.625q0 -1.546875 0.984375 -2.59375q0.984375 -1.046875 2.53125 -1.046875zm-1.625 2.890625l3.078125 0q-0.140625 -0.765625 -0.5 -1.109375q-0.34375 -0.359375 -1.015625 -0.359375q-0.6875 0 -1.09375 0.390625q-0.40625 0.390625 -0.46875 1.078125zm10.106384 -2.890625q0.125 0 0.21875 0.015625q0.109375 0.015625 0.203125 0.046875l0 1.765625q-0.15625 -0.03125 -0.3125 -0.046875q-0.15625 -0.015625 -0.359375 -0.015625q-0.953125 0 -1.421875 0.59375q-0.453125 0.578125 -0.453125 1.5625l0 3.15625l-1.890625 0l0 -6.890625l1.796875 0l0 1.28125l0.03125 0q0.296875 -0.671875 0.890625 -1.0625q0.59375 -0.40625 1.296875 -0.40625zm5.1242676 0q1.328125 0 1.921875 0.671875q0.59375 0.671875 0.59375 2.09375l0 4.3125l-1.890625 0l0 -3.953125q0 -0.796875 -0.28125 -1.203125q-0.28125 -0.421875 -0.9375 -0.421875q-0.78125 0 -1.125 0.46875q-0.34375 0.46875 -0.34375 1.4375l0 3.671875l-1.890625 0l0 -6.890625l1.796875 0l0 0.96875l0.046875 0q0.34375 -0.5625 0.890625 -0.859375q0.5625 -0.296875 1.21875 -0.296875zm7.1193237 0q1.53125 0 2.265625 0.5q0.75 0.5 0.75 1.421875l0 3.6875q0 0.421875 0.046875 0.84375q0.0625 0.40625 0.1875 0.625l-1.921875 0q-0.046875 -0.15625 -0.078125 -0.3125q-0.03125 -0.171875 -0.046875 -0.34375q-0.40625 0.40625 -1.0 0.625q-0.578125 0.21875 -1.328125 0.21875q-1.0625 0 -1.703125 -0.53125q-0.640625 -0.546875 -0.640625 -1.53125q0 -0.96875 0.59375 -1.46875q0.609375 -0.515625 2.1875 -0.703125q1.109375 -0.09375 1.453125 -0.265625q0.359375 -0.171875 0.359375 -0.578125q0 -0.453125 -0.28125 -0.6875q-0.265625 -0.234375 -0.9375 -0.234375q-0.59375 0 -0.90625 0.25q-0.3125 0.25 -0.359375 0.796875l-1.890625 0q0.078125 -1.140625 0.921875 -1.71875q0.859375 -0.59375 2.328125 -0.59375zm-1.578125 5.125q0 0.40625 0.28125 0.640625q0.28125 0.234375 0.890625 0.234375q0.75 0 1.140625 -0.390625q0.390625 -0.40625 0.390625 -1.171875l0 -0.734375q-0.171875 0.140625 -0.453125 0.21875q-0.28125 0.0625 -1.0 0.15625q-0.640625 0.09375 -0.953125 0.34375q-0.296875 0.25 -0.296875 0.703125zm10.012634 -5.125q1.328125 0 1.921875 0.671875q0.59375 0.671875 0.59375 2.09375l0 4.3125l-1.890625 0l0 -3.953125q0 -0.796875 -0.28125 -1.203125q-0.28125 -0.421875 -0.9375 -0.421875q-0.78125 0 -1.125 0.46875q-0.34375 0.46875 -0.34375 1.4375l0 3.671875l-1.890625 0l0 -6.890625l1.796875 0l0 0.96875l0.046875 0q0.34375 -0.5625 0.890625 -0.859375q0.5625 -0.296875 1.21875 -0.296875zm7.2443237 0q1.34375 0 2.25 0.703125q0.921875 0.6875 1.0 1.90625l-1.859375 0q-0.078125 -0.59375 -0.4375 -0.890625q-0.34375 -0.296875 -0.953125 -0.296875q-0.765625 0 -1.1875 0.625q-0.421875 0.625 -0.421875 1.625q0 0.984375 0.40625 1.578125q0.421875 0.59375 1.15625 0.59375q0.625 0 1.015625 -0.359375q0.390625 -0.359375 0.5 -1.046875l1.8125 0q-0.1875 1.359375 -1.0625 2.09375q-0.875 0.734375 -2.25 0.734375q-1.53125 0 -2.515625 -0.984375q-0.96875 -0.984375 -0.96875 -2.546875q0 -1.671875 0.953125 -2.703125q0.96875 -1.03125 2.5625 -1.03125zm7.5438843 0q1.53125 0 2.4375 1.0625q0.921875 1.046875 0.921875 2.671875l-0.015625 0.359375l-4.96875 0q0.03125 0.890625 0.453125 1.328125q0.4375 0.421875 1.234375 0.421875q0.515625 0 0.9375 -0.265625q0.4375 -0.265625 0.5625 -0.640625l1.65625 0q-0.375 1.171875 -1.1875 1.75q-0.796875 0.578125 -2.03125 0.578125q-1.59375 0 -2.5625 -1.0q-0.953125 -1.015625 -0.953125 -2.625q0 -1.546875 0.984375 -2.59375q0.984375 -1.046875 2.53125 -1.046875zm-1.625 2.890625l3.078125 0q-0.140625 -0.765625 -0.5 -1.109375q-0.34375 -0.359375 -1.015625 -0.359375q-0.6875 0 -1.09375 0.390625q-0.40625 0.390625 -0.46875 1.078125z" fill-rule="nonzero"/><path fill="#c1bdff" d="m7.281409 92.47813l0 0c0 -4.8908997 3.9648585 -8.855759 8.855761 -8.855759l923.8003 0c2.3486938 0 4.6011963 0.9330139 6.261963 2.5937881c1.6608276 1.6607819 2.593811 3.9132767 2.593811 6.2619705l0 35.894783c0 4.8908997 -3.9648438 8.855759 -8.855774 8.855759l-923.8003 0c-4.8909016 0 -8.855761 -3.964859 -8.855761 -8.855759z" fill-rule="evenodd"/><path fill="#0a2540" d="m454.63065 105.70989q1.453125 0 2.203125 0.578125q0.765625 0.578125 0.765625 1.765625q0 0.734375 -0.34375 1.21875q-0.34375 0.484375 -0.953125 0.78125q0.875 0.265625 1.3125 0.890625q0.4375 0.609375 0.4375 1.515625q0 1.328125 -0.953125 2.046875q-0.953125 0.71875 -2.34375 0.71875l-4.671875 0l0 -9.515625l4.546875 0zm-0.296875 3.859375q0.5625 0 0.890625 -0.28125q0.34375 -0.296875 0.34375 -0.859375q0 -0.5625 -0.359375 -0.828125q-0.34375 -0.265625 -1.015625 -0.265625l-2.015625 0l0 2.234375l2.15625 0zm0.125 4.03125q0.703125 0 1.09375 -0.296875q0.40625 -0.3125 0.40625 -0.953125q0 -0.671875 -0.375 -1.015625q-0.375 -0.34375 -1.078125 -0.34375l-2.328125 0l0 2.609375l2.28125 0zm6.696869 -5.265625l0 3.953125q0 0.78125 0.265625 1.203125q0.28125 0.421875 0.953125 0.421875q0.78125 0 1.125 -0.46875q0.34375 -0.46875 0.34375 -1.4375l0 -3.671875l1.890625 0l0 6.890625l-1.8125 0l0 -0.953125l-0.03125 0q-0.359375 0.5625 -0.921875 0.859375q-0.5625 0.28125 -1.1875 0.28125q-1.28125 0 -1.90625 -0.65625q-0.609375 -0.65625 -0.609375 -2.109375l0 -4.3125l1.890625 0zm8.838043 -0.1875q1.40625 0 2.171875 0.5625q0.765625 0.546875 0.875 1.640625l-1.8125 0q-0.03125 -0.5 -0.359375 -0.71875q-0.328125 -0.21875 -0.9375 -0.21875q-0.546875 0 -0.796875 0.171875q-0.25 0.15625 -0.25 0.46875q0 0.3125 0.328125 0.53125q0.328125 0.203125 1.328125 0.390625q1.59375 0.296875 2.125 0.78125q0.546875 0.484375 0.546875 1.265625q0 1.171875 -0.859375 1.78125q-0.84375 0.609375 -2.28125 0.609375q-1.4375 0 -2.3125 -0.609375q-0.875 -0.609375 -0.921875 -1.8125l1.796875 0q0 0.546875 0.40625 0.859375q0.421875 0.296875 1.046875 0.296875q0.546875 0 0.890625 -0.234375q0.34375 -0.25 0.34375 -0.640625q0 -0.359375 -0.453125 -0.578125q-0.4375 -0.234375 -1.640625 -0.484375q-1.1875 -0.234375 -1.71875 -0.671875q-0.515625 -0.4375 -0.515625 -1.1875q0 -1.09375 0.765625 -1.640625q0.78125 -0.5625 2.234375 -0.5625zm6.283661 -2.4375l0 1.5625l-1.890625 0l0 -1.5625l1.890625 0zm0 2.625l0 6.890625l-1.890625 0l0 -6.890625l1.890625 0zm5.436157 -0.1875q1.328125 0 1.921875 0.671875q0.59375 0.671875 0.59375 2.09375l0 4.3125l-1.890625 0l0 -3.953125q0 -0.796875 -0.28125 -1.203125q-0.28125 -0.421875 -0.9375 -0.421875q-0.78125 0 -1.125 0.46875q-0.34375 0.46875 -0.34375 1.4375l0 3.671875l-1.890625 0l0 -6.890625l1.796875 0l0 0.96875l0.046875 0q0.34375 -0.5625 0.890625 -0.859375q0.5625 -0.296875 1.21875 -0.296875zm7.1349487 0q1.53125 0 2.4375 1.0625q0.921875 1.046875 0.921875 2.671875l-0.015625 0.359375l-4.96875 0q0.03125 0.890625 0.453125 1.328125q0.4375 0.421875 1.234375 0.421875q0.515625 0 0.9375 -0.265625q0.4375 -0.265625 0.5625 -0.640625l1.65625 0q-0.375 1.171875 -1.1875 1.75q-0.796875 0.578125 -2.03125 0.578125q-1.59375 0 -2.5625 -1.0q-0.953125 -1.015625 -0.953125 -2.625q0 -1.546875 0.984375 -2.59375q0.984375 -1.046875 2.53125 -1.046875zm-1.625 2.890625l3.078125 0q-0.140625 -0.765625 -0.5 -1.109375q-0.34375 -0.359375 -1.015625 -0.359375q-0.6875 0 -1.09375 0.390625q-0.40625 0.390625 -0.46875 1.078125zm8.918884 -2.890625q1.40625 0 2.171875 0.5625q0.765625 0.546875 0.875 1.640625l-1.8125 0q-0.03125 -0.5 -0.359375 -0.71875q-0.328125 -0.21875 -0.9375 -0.21875q-0.546875 0 -0.796875 0.171875q-0.25 0.15625 -0.25 0.46875q0 0.3125 0.328125 0.53125q0.328125 0.203125 1.328125 0.390625q1.59375 0.296875 2.125 0.78125q0.546875 0.484375 0.546875 1.265625q0 1.171875 -0.859375 1.78125q-0.84375 0.609375 -2.28125 0.609375q-1.4375 0 -2.3125 -0.609375q-0.875 -0.609375 -0.921875 -1.8125l1.796875 0q0 0.546875 0.40625 0.859375q0.421875 0.296875 1.046875 0.296875q0.546875 0 0.890625 -0.234375q0.34375 -0.25 0.34375 -0.640625q0 -0.359375 -0.453125 -0.578125q-0.4375 -0.234375 -1.640625 -0.484375q-1.1875 -0.234375 -1.71875 -0.671875q-0.515625 -0.4375 -0.515625 -1.1875q0 -1.09375 0.765625 -1.640625q0.78125 -0.5625 2.234375 -0.5625zm7.1586304 0q1.40625 0 2.171875 0.5625q0.765625 0.546875 0.875 1.640625l-1.8125 0q-0.03125 -0.5 -0.359375 -0.71875q-0.328125 -0.21875 -0.9375 -0.21875q-0.546875 0 -0.796875 0.171875q-0.25 0.15625 -0.25 0.46875q0 0.3125 0.328125 0.53125q0.328125 0.203125 1.328125 0.390625q1.59375 0.296875 2.125 0.78125q0.546875 0.484375 0.546875 1.265625q0 1.171875 -0.859375 1.78125q-0.84375 0.609375 -2.28125 0.609375q-1.4375 0 -2.3125 -0.609375q-0.875 -0.609375 -0.921875 -1.8125l1.796875 0q0 0.546875 0.40625 0.859375q0.421875 0.296875 1.046875 0.296875q0.546875 0 0.890625 -0.234375q0.34375 -0.25 0.34375 -0.640625q0 -0.359375 -0.453125 -0.578125q-0.4375 -0.234375 -1.640625 -0.484375q-1.1875 -0.234375 -1.71875 -0.671875q-0.515625 -0.4375 -0.515625 -1.1875q0 -1.09375 0.765625 -1.640625q0.78125 -0.5625 2.234375 -0.5625z" fill-rule="nonzero"/><path fill="#c1bdff" d="m2.2586606 10.293405l229.87401 0l26.818893 26.818897l-26.818893 26.818901l-229.87401 0l26.818897 -26.818901z" fill-rule="evenodd"/><path fill="#0a2540" d="m113.55214 32.396675l3.5625 9.515625l-2.171875 0l-0.71875 -2.125l-3.5625 0l-0.734375 2.125l-2.125 0l3.609375 -9.515625l2.140625 0zm-1.09375 2.34375l-1.25 3.5l2.46875 0l-1.1875 -3.5l-0.03125 0zm8.114929 0.09375q1.40625 0 2.171875 0.5625q0.765625 0.546875 0.875 1.640625l-1.8125 0q-0.03125 -0.5 -0.359375 -0.71875q-0.328125 -0.21875 -0.9375 -0.21875q-0.546875 0 -0.796875 0.171875q-0.25 0.15625 -0.25 0.46875q0 0.3125 0.328125 0.53125q0.328125 0.203125 1.328125 0.390625q1.59375 0.296875 2.125 0.78125q0.546875 0.484375 0.546875 1.265625q0 1.171875 -0.859375 1.78125q-0.84375 0.609375 -2.28125 0.609375q-1.4375 0 -2.3125 -0.609375q-0.875 -0.609375 -0.921875 -1.8125l1.796875 0q0 0.546875 0.40625 0.859375q0.421875 0.296875 1.046875 0.296875q0.546875 0 0.890625 -0.234375q0.34375 -0.25 0.34375 -0.640625q0 -0.359375 -0.453125 -0.578125q-0.4375 -0.234375 -1.640625 -0.484375q-1.1875 -0.234375 -1.71875 -0.671875q-0.515625 -0.4375 -0.515625 -1.1875q0 -1.09375 0.765625 -1.640625q0.78125 -0.5625 2.234375 -0.5625zm7.158661 0q1.40625 0 2.171875 0.5625q0.765625 0.546875 0.875 1.640625l-1.8125 0q-0.03125 -0.5 -0.359375 -0.71875q-0.328125 -0.21875 -0.9375 -0.21875q-0.546875 0 -0.796875 0.171875q-0.25 0.15625 -0.25 0.46875q0 0.3125 0.328125 0.53125q0.328125 0.203125 1.328125 0.390625q1.59375 0.296875 2.125 0.78125q0.546875 0.484375 0.546875 1.265625q0 1.171875 -0.859375 1.78125q-0.84375 0.609375 -2.28125 0.609375q-1.4375 0 -2.3125 -0.609375q-0.875 -0.609375 -0.921875 -1.8125l1.796875 0q0 0.546875 0.40625 0.859375q0.421875 0.296875 1.046875 0.296875q0.546875 0 0.890625 -0.234375q0.34375 -0.25 0.34375 -0.640625q0 -0.359375 -0.453125 -0.578125q-0.4375 -0.234375 -1.640625 -0.484375q-1.1875 -0.234375 -1.71875 -0.671875q-0.515625 -0.4375 -0.515625 -1.1875q0 -1.09375 0.765625 -1.640625q0.78125 -0.5625 2.234375 -0.5625zm7.518036 0q1.53125 0 2.4375 1.0625q0.921875 1.046875 0.921875 2.671875l-0.015625 0.359375l-4.96875 0q0.03125 0.890625 0.453125 1.328125q0.4375 0.421875 1.234375 0.421875q0.515625 0 0.9375 -0.265625q0.4375 -0.265625 0.5625 -0.640625l1.65625 0q-0.375 1.171875 -1.1875 1.75q-0.796875 0.578125 -2.03125 0.578125q-1.59375 0 -2.5625 -1.0q-0.953125 -1.015625 -0.953125 -2.625q0 -1.546875 0.984375 -2.59375q0.984375 -1.046875 2.53125 -1.046875zm-1.625 2.890625l3.078125 0q-0.140625 -0.765625 -0.5 -1.109375q-0.34375 -0.359375 -1.015625 -0.359375q-0.6875 0 -1.09375 0.390625q-0.40625 0.390625 -0.46875 1.078125zm8.918884 -2.890625q1.40625 0 2.171875 0.5625q0.765625 0.546875 0.875 1.640625l-1.8125 0q-0.03125 -0.5 -0.359375 -0.71875q-0.328125 -0.21875 -0.9375 -0.21875q-0.546875 0 -0.796875 0.171875q-0.25 0.15625 -0.25 0.46875q0 0.3125 0.328125 0.53125q0.328125 0.203125 1.328125 0.390625q1.59375 0.296875 2.125 0.78125q0.546875 0.484375 0.546875 1.265625q0 1.171875 -0.859375 1.78125q-0.84375 0.609375 -2.28125 0.609375q-1.4375 0 -2.3125 -0.609375q-0.875 -0.609375 -0.921875 -1.8125l1.796875 0q0 0.546875 0.40625 0.859375q0.421875 0.296875 1.046875 0.296875q0.546875 0 0.890625 -0.234375q0.34375 -0.25 0.34375 -0.640625q0 -0.359375 -0.453125 -0.578125q-0.4375 -0.234375 -1.640625 -0.484375q-1.1875 -0.234375 -1.71875 -0.671875q-0.515625 -0.4375 -0.515625 -1.1875q0 -1.09375 0.765625 -1.640625q0.78125 -0.5625 2.234375 -0.5625zm7.158661 0q1.40625 0 2.171875 0.5625q0.765625 0.546875 0.875 1.640625l-1.8125 0q-0.03125 -0.5 -0.359375 -0.71875q-0.328125 -0.21875 -0.9375 -0.21875q-0.546875 0 -0.796875 0.171875q-0.25 0.15625 -0.25 0.46875q0 0.3125 0.328125 0.53125q0.328125 0.203125 1.328125 0.390625q1.59375 0.296875 2.125 0.78125q0.546875 0.484375 0.546875 1.265625q0 1.171875 -0.859375 1.78125q-0.84375 0.609375 -2.28125 0.609375q-1.4375 0 -2.3125 -0.609375q-0.875 -0.609375 -0.921875 -1.8125l1.796875 0q0 0.546875 0.40625 0.859375q0.421875 0.296875 1.046875 0.296875q0.546875 0 0.890625 -0.234375q0.34375 -0.25 0.34375 -0.640625q0 -0.359375 -0.453125 -0.578125q-0.4375 -0.234375 -1.640625 -0.484375q-1.1875 -0.234375 -1.71875 -0.671875q-0.515625 -0.4375 -0.515625 -1.1875q0 -1.09375 0.765625 -1.640625q0.78125 -0.5625 2.234375 -0.5625z" fill-rule="nonzero"/><path fill="#a19dff" d="m235.18864 10.293405l229.87401 0l26.818909 26.818897l-26.818909 26.818901l-229.87401 0l26.818893 -26.818901z" fill-rule="evenodd"/><path fill="#0a2540" d="m343.09634 32.396675l0 7.765625l4.640625 0l0 1.75l-6.734375 0l0 -9.515625l2.09375 0zm8.775574 2.4375q1.53125 0 2.265625 0.5q0.75 0.5 0.75 1.421875l0 3.6875q0 0.421875 0.046875 0.84375q0.0625 0.40625 0.1875 0.625l-1.921875 0q-0.046875 -0.15625 -0.078125 -0.3125q-0.03125 -0.171875 -0.046875 -0.34375q-0.40625 0.40625 -1.0 0.625q-0.578125 0.21875 -1.328125 0.21875q-1.0625 0 -1.703125 -0.53125q-0.640625 -0.546875 -0.640625 -1.53125q0 -0.96875 0.59375 -1.46875q0.609375 -0.515625 2.1875 -0.703125q1.109375 -0.09375 1.453125 -0.265625q0.359375 -0.171875 0.359375 -0.578125q0 -0.453125 -0.28125 -0.6875q-0.265625 -0.234375 -0.9375 -0.234375q-0.59375 0 -0.90625 0.25q-0.3125 0.25 -0.359375 0.796875l-1.890625 0q0.078125 -1.140625 0.921875 -1.71875q0.859375 -0.59375 2.328125 -0.59375zm-1.578125 5.125q0 0.40625 0.28125 0.640625q0.28125 0.234375 0.890625 0.234375q0.75 0 1.140625 -0.390625q0.390625 -0.40625 0.390625 -1.171875l0 -0.734375q-0.171875 0.140625 -0.453125 0.21875q-0.28125 0.0625 -1.0 0.15625q-0.640625 0.09375 -0.953125 0.34375q-0.296875 0.25 -0.296875 0.703125zm7.9501343 -4.9375l0 3.953125q0 0.78125 0.265625 1.203125q0.28125 0.421875 0.953125 0.421875q0.78125 0 1.125 -0.46875q0.34375 -0.46875 0.34375 -1.4375l0 -3.671875l1.890625 0l0 6.890625l-1.8125 0l0 -0.953125l-0.03125 0q-0.359375 0.5625 -0.921875 0.859375q-0.5625 0.28125 -1.1875 0.28125q-1.28125 0 -1.90625 -0.65625q-0.609375 -0.65625 -0.609375 -2.109375l0 -4.3125l1.890625 0zm9.963043 -0.1875q1.328125 0 1.921875 0.671875q0.59375 0.671875 0.59375 2.09375l0 4.3125l-1.890625 0l0 -3.953125q0 -0.796875 -0.28125 -1.203125q-0.28125 -0.421875 -0.9375 -0.421875q-0.78125 0 -1.125 0.46875q-0.34375 0.46875 -0.34375 1.4375l0 3.671875l-1.890625 0l0 -6.890625l1.796875 0l0 0.96875l0.046875 0q0.34375 -0.5625 0.890625 -0.859375q0.5625 -0.296875 1.21875 -0.296875zm7.2443237 0q1.34375 0 2.25 0.703125q0.921875 0.6875 1.0 1.90625l-1.859375 0q-0.078125 -0.59375 -0.4375 -0.890625q-0.34375 -0.296875 -0.953125 -0.296875q-0.765625 0 -1.1875 0.625q-0.421875 0.625 -0.421875 1.625q0 0.984375 0.40625 1.578125q0.421875 0.59375 1.15625 0.59375q0.625 0 1.015625 -0.359375q0.390625 -0.359375 0.5 -1.046875l1.8125 0q-0.1875 1.359375 -1.0625 2.09375q-0.875 0.734375 -2.25 0.734375q-1.53125 0 -2.515625 -0.984375q-0.96875 -0.984375 -0.96875 -2.546875q0 -1.671875 0.953125 -2.703125q0.96875 -1.03125 2.5625 -1.03125zm6.2470093 -2.4375l0 3.59375l0.046875 0q0.296875 -0.515625 0.84375 -0.828125q0.546875 -0.328125 1.171875 -0.328125q1.328125 0 1.921875 0.671875q0.59375 0.671875 0.59375 2.09375l0 4.3125l-1.890625 0l0 -3.953125q0 -0.796875 -0.28125 -1.203125q-0.28125 -0.421875 -0.9375 -0.421875q-0.78125 0 -1.125 0.46875q-0.34375 0.46875 -0.34375 1.4375l0 3.671875l-1.890625 0l0 -9.515625l1.890625 0z" fill-rule="nonzero"/><path fill="#827cff" d="m468.11862 10.293405l229.87405 0l26.818848 26.818897l-26.818848 26.818901l-229.87405 0l26.818909 -26.818901z" fill-rule="evenodd"/><path fill="#ffffff" d="m583.14575 32.1623q1.71875 0 2.75 0.8125q1.046875 0.796875 1.046875 2.265625l-2.015625 0q-0.046875 -0.71875 -0.5 -1.078125q-0.4375 -0.359375 -1.375 -0.359375q-0.640625 0 -1.046875 0.28125q-0.40625 0.265625 -0.40625 0.796875q0 0.359375 0.171875 0.53125q0.171875 0.171875 0.6875 0.375q0.53125 0.1875 2.296875 0.59375q1.1875 0.296875 1.84375 0.984375q0.671875 0.671875 0.671875 1.71875q0 1.390625 -1.046875 2.234375q-1.03125 0.828125 -2.90625 0.828125q-1.796875 0 -2.9375 -0.890625q-1.125 -0.890625 -1.125 -2.453125l0 -0.046875l2.03125 0q0 0.890625 0.578125 1.328125q0.578125 0.421875 1.515625 0.421875q0.859375 0 1.359375 -0.296875q0.5 -0.3125 0.5 -0.875q0 -0.46875 -0.390625 -0.765625q-0.375 -0.296875 -1.234375 -0.515625q-1.09375 -0.234375 -1.984375 -0.515625q-0.890625 -0.28125 -1.484375 -0.890625q-0.578125 -0.625 -0.578125 -1.59375q0 -1.28125 1.03125 -2.078125q1.03125 -0.8125 2.546875 -0.8125zm8.461487 2.671875q1.34375 0 2.25 0.703125q0.921875 0.6875 1.0 1.90625l-1.859375 0q-0.078125 -0.59375 -0.4375 -0.890625q-0.34375 -0.296875 -0.953125 -0.296875q-0.765625 0 -1.1875 0.625q-0.421875 0.625 -0.421875 1.625q0 0.984375 0.40625 1.578125q0.421875 0.59375 1.15625 0.59375q0.625 0 1.015625 -0.359375q0.390625 -0.359375 0.5 -1.046875l1.8125 0q-0.1875 1.359375 -1.0625 2.09375q-0.875 0.734375 -2.25 0.734375q-1.53125 0 -2.515625 -0.984375q-0.96875 -0.984375 -0.96875 -2.546875q0 -1.671875 0.953125 -2.703125q0.96875 -1.03125 2.5625 -1.03125zm7.5282593 0q1.53125 0 2.265625 0.5q0.75 0.5 0.75 1.421875l0 3.6875q0 0.421875 0.046875 0.84375q0.0625 0.40625 0.1875 0.625l-1.921875 0q-0.046875 -0.15625 -0.078125 -0.3125q-0.03125 -0.171875 -0.046875 -0.34375q-0.40625 0.40625 -1.0 0.625q-0.578125 0.21875 -1.328125 0.21875q-1.0625 0 -1.703125 -0.53125q-0.640625 -0.546875 -0.640625 -1.53125q0 -0.96875 0.59375 -1.46875q0.609375 -0.515625 2.1875 -0.703125q1.109375 -0.09375 1.453125 -0.265625q0.359375 -0.171875 0.359375 -0.578125q0 -0.453125 -0.28125 -0.6875q-0.265625 -0.234375 -0.9375 -0.234375q-0.59375 0 -0.90625 0.25q-0.3125 0.25 -0.359375 0.796875l-1.890625 0q0.078125 -1.140625 0.921875 -1.71875q0.859375 -0.59375 2.328125 -0.59375zm-1.578125 5.125q0 0.40625 0.28125 0.640625q0.28125 0.234375 0.890625 0.234375q0.75 0 1.140625 -0.390625q0.390625 -0.40625 0.390625 -1.171875l0 -0.734375q-0.171875 0.140625 -0.453125 0.21875q-0.28125 0.0625 -1.0 0.15625q-0.640625 0.09375 -0.953125 0.34375q-0.296875 0.25 -0.296875 0.703125zm8.012634 -7.5625l0 9.515625l-1.890625 0l0 -9.515625l1.890625 0zm4.670532 2.4375q1.53125 0 2.4375 1.0625q0.921875 1.046875 0.921875 2.671875l-0.015625 0.359375l-4.96875 0q0.03125 0.890625 0.453125 1.328125q0.4375 0.421875 1.234375 0.421875q0.515625 0 0.9375 -0.265625q0.4375 -0.265625 0.5625 -0.640625l1.65625 0q-0.375 1.171875 -1.1875 1.75q-0.796875 0.578125 -2.03125 0.578125q-1.59375 0 -2.5625 -1.0q-0.953125 -1.015625 -0.953125 -2.625q0 -1.546875 0.984375 -2.59375q0.984375 -1.046875 2.53125 -1.046875zm-1.625 2.890625l3.078125 0q-0.140625 -0.765625 -0.5 -1.109375q-0.34375 -0.359375 -1.015625 -0.359375q-0.6875 0 -1.09375 0.390625q-0.40625 0.390625 -0.46875 1.078125z" fill-rule="nonzero"/><path fill="#635bff" d="m701.04865 10.293405l229.87396 0l26.818909 26.818897l-26.818909 26.818901l-229.87396 0l26.818848 -26.818901z" fill-rule="evenodd"/><path fill="#ffffff" d="m806.32544 32.1623q2.125 0 3.390625 1.4375q1.28125 1.421875 1.28125 3.59375q0 2.125 -1.28125 3.546875q-1.28125 1.40625 -3.390625 1.40625q-1.375 0 -2.453125 -0.625q-1.0625 -0.640625 -1.65625 -1.78125q-0.578125 -1.140625 -0.578125 -2.546875q0 -2.203125 1.28125 -3.609375q1.296875 -1.421875 3.40625 -1.421875zm-2.59375 5.03125q0 1.40625 0.671875 2.296875q0.671875 0.890625 1.921875 0.890625q1.234375 0 1.90625 -0.875q0.671875 -0.875 0.671875 -2.3125q0 -1.5 -0.6875 -2.375q-0.6875 -0.890625 -1.90625 -0.890625q-1.21875 0 -1.90625 0.890625q-0.671875 0.890625 -0.671875 2.375zm12.367004 -2.359375q1.46875 0 2.296875 1.03125q0.84375 1.015625 0.84375 2.671875q0 1.53125 -0.828125 2.546875q-0.8125 1.015625 -2.203125 1.015625q-0.625 0 -1.171875 -0.265625q-0.546875 -0.265625 -0.890625 -0.78125l-0.03125 0l0 3.28125l-1.890625 0l0 -9.3125l1.796875 0l0 0.875l0.03125 0q0.34375 -0.53125 0.859375 -0.796875q0.53125 -0.265625 1.1875 -0.265625zm-2.046875 3.65625q0 0.984375 0.421875 1.59375q0.421875 0.59375 1.234375 0.59375q0.78125 0 1.203125 -0.5625q0.4375 -0.578125 0.4375 -1.625q0 -0.984375 -0.4375 -1.609375q-0.421875 -0.625 -1.234375 -0.625q-0.78125 0 -1.203125 0.59375q-0.421875 0.578125 -0.421875 1.640625zm8.719482 -5.53125l0 2.0625l1.375 0l0 1.265625l-1.375 0l0 3.453125q0 0.421875 0.15625 0.59375q0.15625 0.171875 0.640625 0.171875q0.15625 0 0.296875 -0.015625q0.15625 -0.015625 0.28125 -0.046875l0 1.484375q-0.234375 0.03125 -0.53125 0.046875q-0.28125 0.015625 -0.5625 0.015625q-1.21875 0 -1.703125 -0.421875q-0.484375 -0.421875 -0.484375 -1.171875l0 -4.109375l-1.140625 0l0 -1.265625l1.140625 0l0 -2.0625l1.90625 0zm4.2390747 -0.5625l0 1.5625l-1.890625 0l0 -1.5625l1.890625 0zm0 2.625l0 6.890625l-1.890625 0l0 -6.890625l1.890625 0zm5.451782 -0.1875q0.765625 0 1.265625 0.296875q0.515625 0.296875 0.75 0.859375q0.390625 -0.5625 0.921875 -0.859375q0.53125 -0.296875 1.171875 -0.296875q1.25 0 1.875 0.640625q0.625 0.640625 0.625 1.765625l0 4.671875l-1.890625 0l0 -3.984375q0 -0.9375 -0.28125 -1.265625q-0.265625 -0.328125 -0.875 -0.328125q-0.640625 0 -0.953125 0.4375q-0.3125 0.421875 -0.3125 1.25l0 3.890625l-1.890625 0l0 -4.25q0 -0.671875 -0.265625 -1.0q-0.265625 -0.328125 -0.875 -0.328125q-0.546875 0 -0.921875 0.421875q-0.359375 0.40625 -0.359375 1.109375l0 4.046875l-1.890625 0l0 -6.890625l1.78125 0l0 0.9375l0.015625 0q0.40625 -0.5625 0.9375 -0.84375q0.53125 -0.28125 1.171875 -0.28125zm10.056519 -2.4375l0 1.5625l-1.890625 0l0 -1.5625l1.890625 0zm0 2.625l0 6.890625l-1.890625 0l0 -6.890625l1.890625 0zm7.139282 0l0 1.421875l-3.59375 4.046875l3.84375 0l0 1.421875l-6.328125 0l0 -1.421875l3.578125 -4.046875l-3.3125 0l0 -1.421875l5.8125 0zm4.2472534 -0.1875q1.53125 0 2.4375 1.0625q0.921875 1.046875 0.921875 2.671875l-0.015625 0.359375l-4.96875 0q0.03125 0.890625 0.453125 1.328125q0.4375 0.421875 1.234375 0.421875q0.515625 0 0.9375 -0.265625q0.4375 -0.265625 0.5625 -0.640625l1.65625 0q-0.375 1.171875 -1.1875 1.75q-0.796875 0.578125 -2.03125 0.578125q-1.59375 0 -2.5625 -1.0q-0.953125 -1.015625 -0.953125 -2.625q0 -1.546875 0.984375 -2.59375q0.984375 -1.046875 2.53125 -1.046875zm-1.625 2.890625l3.078125 0q-0.140625 -0.765625 -0.5 -1.109375q-0.34375 -0.359375 -1.015625 -0.359375q-0.6875 0 -1.09375 0.390625q-0.40625 0.390625 -0.46875 1.078125z" fill-rule="nonzero"/><path fill="#0000ff" d="m7.281409 344.79083l0 0c0 -4.800598 3.8916583 -8.692261 8.692261 -8.692261l924.12726 0c2.305359 0 4.5162354 0.9157715 6.1463623 2.5458984c1.630127 1.630127 2.5458984 3.841034 2.5458984 6.1463623l0 36.22177c0 4.800598 -3.8916626 8.692261 -8.692261 8.692261l-924.12726 0c-4.800603 0 -8.692261 -3.8916626 -8.692261 -8.692261z" fill-rule="evenodd"/><path fill="#ffffff" d="m448.1604 357.95172q2.125 0 3.390625 1.4375q1.28125 1.421875 1.28125 3.59375q0 2.125 -1.28125 3.546875q-1.28125 1.40625 -3.390625 1.40625q-1.375 0 -2.453125 -0.625q-1.0625 -0.640625 -1.65625 -1.78125q-0.578125 -1.140625 -0.578125 -2.546875q0 -2.203125 1.28125 -3.609375q1.296875 -1.421875 3.40625 -1.421875zm-2.59375 5.03125q0 1.40625 0.671875 2.296875q0.671875 0.890625 1.921875 0.890625q1.234375 0 1.90625 -0.875q0.671875 -0.875 0.671875 -2.3125q0 -1.5 -0.6875 -2.375q-0.6875 -0.890625 -1.90625 -0.890625q-1.21875 0 -1.90625 0.890625q-0.671875 0.890625 -0.671875 2.375zm12.367065 -2.359375q1.46875 0 2.296875 1.03125q0.84375 1.015625 0.84375 2.671875q0 1.53125 -0.828125 2.546875q-0.8125 1.015625 -2.203125 1.015625q-0.625 0 -1.171875 -0.265625q-0.546875 -0.265625 -0.890625 -0.78125l-0.03125 0l0 3.28125l-1.890625 0l0 -9.3125l1.796875 0l0 0.875l0.03125 0q0.34375 -0.53125 0.859375 -0.796875q0.53125 -0.265625 1.1875 -0.265625zm-2.046875 3.65625q0 0.984375 0.421875 1.59375q0.421875 0.59375 1.234375 0.59375q0.78125 0 1.203125 -0.5625q0.4375 -0.578125 0.4375 -1.625q0 -0.984375 -0.4375 -1.609375q-0.421875 -0.625 -1.234375 -0.625q-0.78125 0 -1.203125 0.59375q-0.421875 0.578125 -0.421875 1.640625zm9.500732 -3.65625q1.53125 0 2.4375 1.0625q0.921875 1.046875 0.921875 2.671875l-0.015625 0.359375l-4.96875 0q0.03125 0.890625 0.453125 1.328125q0.4375 0.421875 1.234375 0.421875q0.515625 0 0.9375 -0.265625q0.4375 -0.265625 0.5625 -0.640625l1.65625 0q-0.375 1.171875 -1.1875 1.75q-0.796875 0.578125 -2.03125 0.578125q-1.59375 0 -2.5625 -1.0q-0.953125 -1.015625 -0.953125 -2.625q0 -1.546875 0.984375 -2.59375q0.984375 -1.046875 2.53125 -1.046875zm-1.625 2.890625l3.078125 0q-0.140625 -0.765625 -0.5 -1.109375q-0.34375 -0.359375 -1.015625 -0.359375q-0.6875 0 -1.09375 0.390625q-0.40625 0.390625 -0.46875 1.078125zm10.106384 -2.890625q0.125 0 0.21875 0.015625q0.109375 0.015625 0.203125 0.046875l0 1.765625q-0.15625 -0.03125 -0.3125 -0.046875q-0.15625 -0.015625 -0.359375 -0.015625q-0.953125 0 -1.421875 0.59375q-0.453125 0.578125 -0.453125 1.5625l0 3.15625l-1.890625 0l0 -6.890625l1.796875 0l0 1.28125l0.03125 0q0.296875 -0.671875 0.890625 -1.0625q0.59375 -0.40625 1.296875 -0.40625zm4.1411743 0q1.53125 0 2.265625 0.5q0.75 0.5 0.75 1.421875l0 3.6875q0 0.421875 0.046875 0.84375q0.0625 0.40625 0.1875 0.625l-1.921875 0q-0.046875 -0.15625 -0.078125 -0.3125q-0.03125 -0.171875 -0.046875 -0.34375q-0.40625 0.40625 -1.0 0.625q-0.578125 0.21875 -1.328125 0.21875q-1.0625 0 -1.703125 -0.53125q-0.640625 -0.546875 -0.640625 -1.53125q0 -0.96875 0.59375 -1.46875q0.609375 -0.515625 2.1875 -0.703125q1.109375 -0.09375 1.453125 -0.265625q0.359375 -0.171875 0.359375 -0.578125q0 -0.453125 -0.28125 -0.6875q-0.265625 -0.234375 -0.9375 -0.234375q-0.59375 0 -0.90625 0.25q-0.3125 0.25 -0.359375 0.796875l-1.890625 0q0.078125 -1.140625 0.921875 -1.71875q0.859375 -0.59375 2.328125 -0.59375zm-1.578125 5.125q0 0.40625 0.28125 0.640625q0.28125 0.234375 0.890625 0.234375q0.75 0 1.140625 -0.390625q0.390625 -0.40625 0.390625 -1.171875l0 -0.734375q-0.171875 0.140625 -0.453125 0.21875q-0.28125 0.0625 -1.0 0.15625q-0.640625 0.09375 -0.953125 0.34375q-0.296875 0.25 -0.296875 0.703125zm8.465759 -7.0l0 2.0625l1.375 0l0 1.265625l-1.375 0l0 3.453125q0 0.421875 0.15625 0.59375q0.15625 0.171875 0.640625 0.171875q0.15625 0 0.296875 -0.015625q0.15625 -0.015625 0.28125 -0.046875l0 1.484375q-0.234375 0.03125 -0.53125 0.046875q-0.28125 0.015625 -0.5625 0.015625q-1.21875 0 -1.703125 -0.421875q-0.484375 -0.421875 -0.484375 -1.171875l0 -4.109375l-1.140625 0l0 -1.265625l1.140625 0l0 -2.0625l1.90625 0zm4.2390747 -0.5625l0 1.5625l-1.890625 0l0 -1.5625l1.890625 0zm0 2.625l0 6.890625l-1.890625 0l0 -6.890625l1.890625 0zm4.826782 -0.1875q1.625 0 2.59375 1.0q0.984375 1.0 0.984375 2.640625q0 1.640625 -0.984375 2.640625q-0.984375 0.984375 -2.59375 0.984375q-1.59375 0 -2.578125 -0.984375q-0.984375 -1.0 -0.984375 -2.640625q0 -1.625 0.96875 -2.625q0.96875 -1.015625 2.59375 -1.015625zm-1.65625 3.640625q0 1.09375 0.4375 1.65625q0.453125 0.546875 1.21875 0.546875q0.8125 0 1.25 -0.578125q0.4375 -0.578125 0.4375 -1.625q0 -1.03125 -0.421875 -1.625q-0.421875 -0.59375 -1.28125 -0.59375q-0.75 0 -1.203125 0.5625q-0.4375 0.546875 -0.4375 1.65625zm10.406982 -3.640625q1.328125 0 1.921875 0.671875q0.59375 0.671875 0.59375 2.09375l0 4.3125l-1.890625 0l0 -3.953125q0 -0.796875 -0.28125 -1.203125q-0.28125 -0.421875 -0.9375 -0.421875q-0.78125 0 -1.125 0.46875q-0.34375 0.46875 -0.34375 1.4375l0 3.671875l-1.890625 0l0 -6.890625l1.796875 0l0 0.96875l0.046875 0q0.34375 -0.5625 0.890625 -0.859375q0.5625 -0.296875 1.21875 -0.296875zm6.7755737 0q1.40625 0 2.171875 0.5625q0.765625 0.546875 0.875 1.640625l-1.8125 0q-0.03125 -0.5 -0.359375 -0.71875q-0.328125 -0.21875 -0.9375 -0.21875q-0.546875 0 -0.796875 0.171875q-0.25 0.15625 -0.25 0.46875q0 0.3125 0.328125 0.53125q0.328125 0.203125 1.328125 0.390625q1.59375 0.296875 2.125 0.78125q0.546875 0.484375 0.546875 1.265625q0 1.171875 -0.859375 1.78125q-0.84375 0.609375 -2.28125 0.609375q-1.4375 0 -2.3125 -0.609375q-0.875 -0.609375 -0.921875 -1.8125l1.796875 0q0 0.546875 0.40625 0.859375q0.421875 0.296875 1.046875 0.296875q0.546875 0 0.890625 -0.234375q0.34375 -0.25 0.34375 -0.640625q0 -0.359375 -0.453125 -0.578125q-0.4375 -0.234375 -1.640625 -0.484375q-1.1875 -0.234375 -1.71875 -0.671875q-0.515625 -0.4375 -0.515625 -1.1875q0 -1.09375 0.765625 -1.640625q0.78125 -0.5625 2.234375 -0.5625z" fill-rule="nonzero"/></g></svg>